<mxfile host="app.diagrams.net" modified="2022-07-06T20:17:56.510Z" agent="5.0 (Windows NT 10.0; Win64; x64) AppleWebKit/537.36 (KHTML, like Gecko) Chrome/100.0.4896.88 Safari/537.36" etag="r7zgcbwBxMF-jiNQ_9wA" version="20.0.4" type="github">
  <diagram id="prtHgNgQTEPvFCAcTncT" name="Page-1">
    <mxGraphModel dx="1402" dy="741" grid="1" gridSize="10" guides="1" tooltips="1" connect="1" arrows="1" fold="1" page="1" pageScale="1" pageWidth="1169" pageHeight="827" math="0" shadow="0">
      <root>
        <mxCell id="0" />
        <mxCell id="1" parent="0" />
        <mxCell id="dNxyNK7c78bLwvsdeMH5-19" value="Zip Code Movement" style="swimlane;html=1;childLayout=stackLayout;resizeParent=1;resizeParentMax=0;horizontal=0;startSize=20;horizontalStack=0;fillColor=#fff2cc;strokeColor=#d6b656;" parent="1" vertex="1">
          <mxGeometry x="120" y="120" width="970" height="360" as="geometry" />
        </mxCell>
        <mxCell id="dNxyNK7c78bLwvsdeMH5-20" value="DEV" style="swimlane;html=1;startSize=20;horizontal=0;fillColor=#fa6800;fontColor=#000000;strokeColor=#C73500;" parent="dNxyNK7c78bLwvsdeMH5-19" vertex="1">
          <mxGeometry x="20" width="950" height="120" as="geometry" />
        </mxCell>
        <mxCell id="dNxyNK7c78bLwvsdeMH5-25" value="" style="edgeStyle=orthogonalEdgeStyle;rounded=0;orthogonalLoop=1;jettySize=auto;html=1;" parent="dNxyNK7c78bLwvsdeMH5-20" source="dNxyNK7c78bLwvsdeMH5-23" target="dNxyNK7c78bLwvsdeMH5-24" edge="1">
          <mxGeometry relative="1" as="geometry" />
        </mxCell>
        <mxCell id="dNxyNK7c78bLwvsdeMH5-23" value="Need to make a Zip Change" style="ellipse;whiteSpace=wrap;html=1;fillColor=#f5f5f5;fontColor=#333333;strokeColor=#666666;" parent="dNxyNK7c78bLwvsdeMH5-20" vertex="1">
          <mxGeometry x="40" y="40" width="100" height="40" as="geometry" />
        </mxCell>
        <mxCell id="dNxyNK7c78bLwvsdeMH5-24" value="Pull Data&amp;nbsp;" style="rounded=0;whiteSpace=wrap;html=1;fontFamily=Helvetica;fontSize=12;align=center;fillColor=#fff2cc;strokeColor=#d6b656;" parent="dNxyNK7c78bLwvsdeMH5-20" vertex="1">
          <mxGeometry x="166" y="30" width="80" height="60" as="geometry" />
        </mxCell>
        <mxCell id="dNxyNK7c78bLwvsdeMH5-30" value="Check Data" style="rounded=0;whiteSpace=wrap;html=1;fontFamily=Helvetica;fontSize=12;fontColor=#000000;align=center;fillColor=#fff2cc;strokeColor=#d6b656;" parent="dNxyNK7c78bLwvsdeMH5-20" vertex="1">
          <mxGeometry x="250" y="30" width="80" height="60" as="geometry" />
        </mxCell>
        <mxCell id="1hFcX5w355jq22U9mQL_-2" value="Map Data" style="rounded=0;whiteSpace=wrap;html=1;fontFamily=Helvetica;fontSize=12;fontColor=#000000;align=center;fillColor=#fff2cc;strokeColor=#d6b656;" vertex="1" parent="dNxyNK7c78bLwvsdeMH5-20">
          <mxGeometry x="340" y="30" width="80" height="60" as="geometry" />
        </mxCell>
        <mxCell id="1hFcX5w355jq22U9mQL_-3" value="Run through basic ideas" style="rounded=0;whiteSpace=wrap;html=1;fontFamily=Helvetica;fontSize=12;fontColor=#000000;align=center;fillColor=#fff2cc;strokeColor=#d6b656;" vertex="1" parent="dNxyNK7c78bLwvsdeMH5-20">
          <mxGeometry x="513" y="30" width="80" height="60" as="geometry" />
        </mxCell>
        <mxCell id="1hFcX5w355jq22U9mQL_-4" value="Gen 4 Site Selector" style="rounded=0;whiteSpace=wrap;html=1;fontFamily=Helvetica;fontSize=12;fontColor=#000000;align=center;fillColor=#fff2cc;strokeColor=#d6b656;" vertex="1" parent="dNxyNK7c78bLwvsdeMH5-20">
          <mxGeometry x="427" y="30" width="80" height="60" as="geometry" />
        </mxCell>
        <mxCell id="1hFcX5w355jq22U9mQL_-5" value="Introduce secondary data (e.g. traffic, zoning, rail, water, endangered species, runoff, and&amp;nbsp; etc.)" style="rounded=0;whiteSpace=wrap;html=1;fontFamily=Helvetica;fontSize=12;fontColor=#000000;align=center;fillColor=#fff2cc;strokeColor=#d6b656;" vertex="1" parent="dNxyNK7c78bLwvsdeMH5-20">
          <mxGeometry x="599" y="30" width="160" height="60" as="geometry" />
        </mxCell>
        <mxCell id="dNxyNK7c78bLwvsdeMH5-21" value="QA" style="swimlane;html=1;startSize=20;horizontal=0;fillColor=#e51400;fontColor=#ffffff;strokeColor=#B20000;" parent="dNxyNK7c78bLwvsdeMH5-19" vertex="1">
          <mxGeometry x="20" y="120" width="950" height="120" as="geometry" />
        </mxCell>
        <mxCell id="dNxyNK7c78bLwvsdeMH5-26" value="Present data to RVP, SVC Mgr, or Sales Directors" style="rounded=0;whiteSpace=wrap;html=1;fontFamily=Helvetica;fontSize=12;align=center;fillColor=#dae8fc;strokeColor=#6c8ebf;" parent="dNxyNK7c78bLwvsdeMH5-21" vertex="1">
          <mxGeometry x="290" y="30" width="80" height="60" as="geometry" />
        </mxCell>
        <mxCell id="1hFcX5w355jq22U9mQL_-6" value="Wait for feedback" style="rounded=0;whiteSpace=wrap;html=1;fontFamily=Helvetica;fontSize=12;fontColor=#000000;align=center;fillColor=#fff2cc;strokeColor=#d6b656;" vertex="1" parent="dNxyNK7c78bLwvsdeMH5-21">
          <mxGeometry x="380" y="30" width="80" height="60" as="geometry" />
        </mxCell>
        <mxCell id="1hFcX5w355jq22U9mQL_-7" value="Setup City Routes" style="rounded=0;whiteSpace=wrap;html=1;fontFamily=Helvetica;fontSize=12;align=center;fillColor=#dae8fc;strokeColor=#6c8ebf;" vertex="1" parent="dNxyNK7c78bLwvsdeMH5-21">
          <mxGeometry x="470" y="30" width="80" height="60" as="geometry" />
        </mxCell>
        <mxCell id="1hFcX5w355jq22U9mQL_-8" value="Setup Sales Territories" style="rounded=0;whiteSpace=wrap;html=1;fontFamily=Helvetica;fontSize=12;align=center;fillColor=#dae8fc;strokeColor=#6c8ebf;" vertex="1" parent="dNxyNK7c78bLwvsdeMH5-21">
          <mxGeometry x="570" y="30" width="80" height="60" as="geometry" />
        </mxCell>
        <mxCell id="1hFcX5w355jq22U9mQL_-9" value="Quality check with Data Scientist" style="rounded=0;whiteSpace=wrap;html=1;fontFamily=Helvetica;fontSize=12;align=center;fillColor=#fff2cc;strokeColor=#d6b656;" vertex="1" parent="dNxyNK7c78bLwvsdeMH5-21">
          <mxGeometry x="660" y="30" width="80" height="60" as="geometry" />
        </mxCell>
        <mxCell id="1hFcX5w355jq22U9mQL_-10" value="VP Approval" style="rounded=0;whiteSpace=wrap;html=1;fontFamily=Helvetica;fontSize=12;align=center;fillColor=#fff2cc;strokeColor=#d6b656;" vertex="1" parent="dNxyNK7c78bLwvsdeMH5-21">
          <mxGeometry x="750" y="30" width="80" height="60" as="geometry" />
        </mxCell>
        <mxCell id="1hFcX5w355jq22U9mQL_-11" value="Put data into update format" style="rounded=0;whiteSpace=wrap;html=1;fontFamily=Helvetica;fontSize=12;align=center;fillColor=#fff2cc;strokeColor=#d6b656;" vertex="1" parent="dNxyNK7c78bLwvsdeMH5-21">
          <mxGeometry x="840" y="30" width="80" height="60" as="geometry" />
        </mxCell>
        <mxCell id="dNxyNK7c78bLwvsdeMH5-22" value="PROD" style="swimlane;html=1;startSize=20;horizontal=0;fillColor=#6d8764;fontColor=#ffffff;strokeColor=#3A5431;" parent="dNxyNK7c78bLwvsdeMH5-19" vertex="1">
          <mxGeometry x="20" y="240" width="950" height="120" as="geometry" />
        </mxCell>
        <mxCell id="dNxyNK7c78bLwvsdeMH5-34" value="Check Format &amp;amp; approval" style="rounded=0;whiteSpace=wrap;html=1;fontFamily=Helvetica;fontSize=12;align=center;fillColor=#f8cecc;strokeColor=#b85450;" parent="dNxyNK7c78bLwvsdeMH5-22" vertex="1">
          <mxGeometry x="210" y="20" width="80" height="60" as="geometry" />
        </mxCell>
        <mxCell id="dNxyNK7c78bLwvsdeMH5-32" value="Updated Zips" style="ellipse;whiteSpace=wrap;html=1;fillColor=#d5e8d4;strokeColor=#82b366;" parent="dNxyNK7c78bLwvsdeMH5-22" vertex="1">
          <mxGeometry x="808" y="30" width="50" height="40" as="geometry" />
        </mxCell>
        <mxCell id="1hFcX5w355jq22U9mQL_-12" value="Communicate with Equipment &amp;amp; Linehaul" style="rounded=0;whiteSpace=wrap;html=1;fontFamily=Helvetica;fontSize=12;align=center;fillColor=#f8cecc;strokeColor=#b85450;" vertex="1" parent="dNxyNK7c78bLwvsdeMH5-22">
          <mxGeometry x="300" y="20" width="80" height="60" as="geometry" />
        </mxCell>
        <mxCell id="1hFcX5w355jq22U9mQL_-13" value="Schedule on calendar &amp;amp; execute com plan" style="rounded=0;whiteSpace=wrap;html=1;fontFamily=Helvetica;fontSize=12;align=center;fillColor=#f8cecc;strokeColor=#b85450;" vertex="1" parent="dNxyNK7c78bLwvsdeMH5-22">
          <mxGeometry x="390" y="20" width="80" height="60" as="geometry" />
        </mxCell>
        <mxCell id="1hFcX5w355jq22U9mQL_-14" value="Update Zips in Prod" style="rounded=0;whiteSpace=wrap;html=1;fontFamily=Helvetica;fontSize=12;align=center;fillColor=#f8cecc;strokeColor=#b85450;" vertex="1" parent="dNxyNK7c78bLwvsdeMH5-22">
          <mxGeometry x="480" y="20" width="80" height="60" as="geometry" />
        </mxCell>
        <mxCell id="1hFcX5w355jq22U9mQL_-15" value="RATB9000 for existing shipments" style="rounded=0;whiteSpace=wrap;html=1;fontFamily=Helvetica;fontSize=12;align=center;fillColor=#f8cecc;strokeColor=#b85450;" vertex="1" parent="dNxyNK7c78bLwvsdeMH5-22">
          <mxGeometry x="570" y="20" width="80" height="60" as="geometry" />
        </mxCell>
        <mxCell id="1hFcX5w355jq22U9mQL_-16" value="Check returned queues" style="rounded=0;whiteSpace=wrap;html=1;fontFamily=Helvetica;fontSize=12;align=center;fillColor=#f8cecc;strokeColor=#b85450;" vertex="1" parent="dNxyNK7c78bLwvsdeMH5-22">
          <mxGeometry x="660" y="20" width="80" height="60" as="geometry" />
        </mxCell>
        <mxCell id="1hFcX5w355jq22U9mQL_-52" value="" style="endArrow=classic;startArrow=classic;html=1;rounded=0;exitX=1;exitY=0.5;exitDx=0;exitDy=0;entryX=0;entryY=0.5;entryDx=0;entryDy=0;" edge="1" parent="dNxyNK7c78bLwvsdeMH5-22" source="1hFcX5w355jq22U9mQL_-15" target="1hFcX5w355jq22U9mQL_-16">
          <mxGeometry width="50" height="50" relative="1" as="geometry">
            <mxPoint x="240" y="20" as="sourcePoint" />
            <mxPoint x="290" y="-30" as="targetPoint" />
          </mxGeometry>
        </mxCell>
        <mxCell id="1hFcX5w355jq22U9mQL_-53" value="" style="endArrow=classic;html=1;rounded=0;exitX=1;exitY=0.5;exitDx=0;exitDy=0;entryX=0;entryY=0.5;entryDx=0;entryDy=0;" edge="1" parent="dNxyNK7c78bLwvsdeMH5-22" source="1hFcX5w355jq22U9mQL_-16" target="dNxyNK7c78bLwvsdeMH5-32">
          <mxGeometry width="50" height="50" relative="1" as="geometry">
            <mxPoint x="240" y="20" as="sourcePoint" />
            <mxPoint x="290" y="-30" as="targetPoint" />
          </mxGeometry>
        </mxCell>
        <mxCell id="1hFcX5w355jq22U9mQL_-20" value="" style="endArrow=classic;html=1;rounded=0;exitX=1;exitY=0.5;exitDx=0;exitDy=0;entryX=0;entryY=0.5;entryDx=0;entryDy=0;" edge="1" parent="dNxyNK7c78bLwvsdeMH5-19" source="1hFcX5w355jq22U9mQL_-11" target="dNxyNK7c78bLwvsdeMH5-34">
          <mxGeometry width="50" height="50" relative="1" as="geometry">
            <mxPoint x="260" y="240" as="sourcePoint" />
            <mxPoint x="310" y="190" as="targetPoint" />
            <Array as="points">
              <mxPoint x="960" y="180" />
              <mxPoint x="960" y="220" />
              <mxPoint x="190" y="250" />
              <mxPoint x="190" y="290" />
            </Array>
          </mxGeometry>
        </mxCell>
        <mxCell id="1hFcX5w355jq22U9mQL_-18" value="" style="endArrow=classic;html=1;rounded=0;exitX=1;exitY=0.5;exitDx=0;exitDy=0;" edge="1" parent="1" source="1hFcX5w355jq22U9mQL_-5">
          <mxGeometry width="50" height="50" relative="1" as="geometry">
            <mxPoint x="380" y="360" as="sourcePoint" />
            <mxPoint x="430" y="310" as="targetPoint" />
            <Array as="points">
              <mxPoint x="940" y="180" />
              <mxPoint x="940" y="220" />
              <mxPoint x="390" y="260" />
              <mxPoint x="390" y="310" />
            </Array>
          </mxGeometry>
        </mxCell>
        <mxCell id="1hFcX5w355jq22U9mQL_-22" value="S&amp;amp;P" style="rounded=0;whiteSpace=wrap;html=1;fontFamily=Helvetica;fontSize=12;align=center;fillColor=#fff2cc;strokeColor=#d6b656;" vertex="1" parent="1">
          <mxGeometry x="160" y="40" width="80" height="60" as="geometry" />
        </mxCell>
        <mxCell id="1hFcX5w355jq22U9mQL_-24" value="S&amp;amp;P and internal customer" style="rounded=0;whiteSpace=wrap;html=1;fontFamily=Helvetica;fontSize=12;align=center;fillColor=#dae8fc;strokeColor=#6c8ebf;" vertex="1" parent="1">
          <mxGeometry x="260" y="40" width="80" height="60" as="geometry" />
        </mxCell>
        <mxCell id="1hFcX5w355jq22U9mQL_-25" value="Ops Sys (Ashley)" style="rounded=0;whiteSpace=wrap;html=1;fontFamily=Helvetica;fontSize=12;align=center;fillColor=#f8cecc;strokeColor=#b85450;" vertex="1" parent="1">
          <mxGeometry x="360" y="40" width="80" height="60" as="geometry" />
        </mxCell>
      </root>
    </mxGraphModel>
  </diagram>
</mxfile>
